<svg xmlns="http://www.w3.org/2000/svg" width="49" height="49" fill="none" viewBox="0 0 49 49"><g clip-path="url(#clip0)"><path fill="#F0DB4F" d="M1.25 1.23499L1.25001 48.11H48.125L48.125 1.23499L1.25 1.23499ZM26.0446 41.1774C25.3528 42.5832 24.032 43.5069 22.5016 43.9527C20.15 44.4927 17.9008 44.1849 16.2275 43.1806C15.1078 42.4936 14.2333 41.4361 13.6396 40.2177L17.2096 38.0315C17.2408 38.0446 17.3345 38.2141 17.4598 38.4331C17.915 39.1959 18.3076 39.7359 19.0794 40.115C19.8376 40.3737 21.5023 40.5391 22.145 39.2049C22.5376 38.5261 22.4128 36.3444 22.4128 33.9305C22.4124 30.1374 22.43 26.36 22.43 22.61H26.8209C26.8209 26.735 26.8434 30.6417 26.8209 34.667C26.8303 37.1345 27.0444 39.3342 26.0446 41.1774ZM44.2599 39.9369C42.7336 45.1576 34.2241 45.3271 30.8236 41.8779C30.1051 41.066 29.6548 40.6419 29.2261 39.7047C31.0333 38.6652 31.0333 38.6652 32.7916 37.6479C33.7468 39.116 34.6299 39.9234 36.2188 40.2537C38.3743 40.517 40.5429 39.7764 40.0565 37.487C39.5566 35.6172 35.6428 35.1624 32.9791 33.1629C30.275 31.3467 29.6413 26.9337 31.8635 24.4122C32.6041 23.4796 33.8671 22.7836 35.1924 22.4491L36.5754 22.2702C39.2307 22.2166 40.8905 22.9179 42.1089 24.2784C42.4479 24.6219 42.7246 24.9924 43.2421 25.7952C41.8276 26.6967 41.8321 26.6881 39.806 27.9999C39.3733 27.0676 38.6551 26.4826 37.8961 26.2284C36.7179 25.8714 35.2321 26.2595 34.9239 27.5045C34.817 27.8881 34.8391 28.2451 35.009 28.8789C35.4864 29.9675 37.0884 30.4407 38.5254 31.1011C42.662 32.7789 44.0589 34.5777 44.4024 36.719C44.7331 38.5625 44.3225 39.7584 44.2599 39.9369Z"/></g><defs><clipPath id="clip0"><rect width="48" height="48" fill="#fff" transform="translate(0.5 0.859985)"/></clipPath></defs></svg>