<svg xmlns="http://www.w3.org/2000/svg" width="49" height="49" fill="none" viewBox="0 0 49 49"><g clip-path="url(#clip0)"><path fill="#059669" d="M44.5 36.97V41.886C44.5 45.736 35.19 48.86 24.5 48.86C13.812 48.86 4.5 45.736 4.5 41.886V36.97C9.336 40.446 18.51 41.482 24.5 41.482C30.512 41.482 39.676 40.436 44.5 36.97ZM24.5 30.152C18.488 30.152 9.324 29.106 4.5 25.64V30.508C4.5 34.36 13.812 37.482 24.5 37.482C35.19 37.482 44.5 34.358 44.5 30.508V25.64C39.664 29.116 30.49 30.152 24.5 30.152ZM24.5 0.859985C13.812 0.859985 4.5 3.98399 4.5 7.83599C4.5 11.688 13.812 14.81 24.5 14.81C35.19 14.81 44.5 11.686 44.5 7.83599C44.5 3.98399 35.19 0.859985 24.5 0.859985V0.859985ZM24.5 18.81C18.488 18.81 9.324 17.764 4.5 14.298V19.178C4.5 23.03 13.812 26.152 24.5 26.152C35.19 26.152 44.5 23.028 44.5 19.178V14.298C39.664 17.774 30.49 18.81 24.5 18.81Z"/></g><defs><clipPath id="clip0"><rect width="48" height="48" fill="#fff" transform="translate(0.5 0.859985)"/></clipPath></defs></svg>