<svg xmlns="http://www.w3.org/2000/svg" width="49" height="49" fill="none" viewBox="0 0 49 49"><path fill="#D91404" fill-rule="evenodd" d="M13.9891 42.6087C24.2888 44.015 34.4056 45.3961 44.7233 46.8042C41.2081 40.952 37.7832 35.2494 34.331 29.5002L13.9891 42.6087ZM47.6303 10.2151C46.7225 11.5786 45.8127 12.941 44.906 14.3052C41.792 18.9901 38.6783 23.675 35.5673 28.3621C35.3941 28.6231 35.1695 28.8301 35.4136 29.2325C38.4196 34.1964 41.402 39.1749 44.3918 44.1489C44.8636 44.9345 45.3406 45.7171 45.9507 46.4709C46.5552 34.3985 47.1593 22.3257 47.7635 10.2534L47.6303 10.2151ZM6.59446 25.6925C6.73509 25.8256 7.08609 25.9032 7.24959 25.8226C10.133 24.4055 13.0347 23.0199 15.8551 21.4861C16.775 20.9862 17.4822 20.09 18.2746 19.3632C20.8985 16.9569 23.5182 14.5456 26.1368 12.134C26.297 11.9859 26.4867 11.8426 26.5823 11.6559C27.5228 9.81761 28.4472 7.96998 29.4042 6.06911C28.2631 5.64011 27.1812 5.22048 26.0858 4.83873C25.9373 4.78698 25.7033 4.88973 25.5425 4.97936C23.0071 6.39573 20.4241 7.73673 17.9693 9.28136C16.7412 10.0542 15.7407 11.1931 14.6532 12.185C12.9005 13.7847 11.15 15.3882 9.42271 17.0157C8.96446 17.4477 8.54671 17.9412 8.18971 18.461C7.00846 20.1811 5.86246 21.926 4.66396 23.7204C5.33371 24.413 5.94271 25.0752 6.59446 25.6925ZM17.1327 23.3409C15.6983 29.4005 14.2726 35.426 12.7992 41.6495C19.7078 37.1979 26.4571 32.849 33.1617 28.5294C27.8262 26.8025 22.508 25.0809 17.1327 23.3409ZM45.8693 10.2736C40.0321 11.249 34.3343 12.2007 28.5631 13.1649C30.5288 17.9465 32.4552 22.6321 34.4363 27.4509C38.2692 21.6912 42.0263 16.0471 45.8693 10.2736ZM17.3735 22.1015C22.6298 23.8077 27.7816 25.4802 33.083 27.2015C31.1142 22.4052 29.213 17.7766 27.2723 13.0501C23.9667 16.0722 20.7106 19.0497 17.3735 22.1015ZM6.81159 29.2261C4.94746 33.6822 3.14671 37.9869 1.31334 42.3691C4.83684 42.2649 8.25234 42.164 11.7852 42.0597C10.1266 37.7802 8.50059 33.5847 6.81159 29.2261ZM11.909 39.0121L12.0387 38.9836C13.2961 33.7557 14.5715 28.5639 15.8551 23.1316C12.9916 24.62 10.2601 26.0394 7.45396 27.4981C8.88609 31.2204 10.4131 35.147 11.909 39.0121ZM43.7566 9.42573C42.0845 8.98286 40.4123 8.53848 38.7395 8.09861C36.335 7.46636 33.9286 6.84198 31.5256 6.20411C31.2252 6.12423 31.0081 6.07211 30.8315 6.43398C29.9821 8.17398 29.1065 9.90086 28.2436 11.6345C28.217 11.6881 28.2226 11.7575 28.202 11.8921C33.4092 11.1031 38.5816 10.319 43.7532 9.53523L43.7566 9.42573ZM34.0557 5.46798L47.6843 9.23823C46.9028 7.01111 46.178 4.94598 45.4325 2.82198L34.0756 5.34011L34.0557 5.46798ZM13.0643 43.6126C11.3765 43.418 9.64359 43.5969 7.93171 43.6265C6.52546 43.6501 5.11921 43.7037 3.71296 43.7476C3.56821 43.7521 3.42384 43.7814 3.27946 43.9374C14.9056 45.0121 26.5313 46.0869 38.1571 47.1624L38.1807 47.0071C34.454 46.4982 30.7268 45.9894 27.0001 45.4809C22.3561 44.8467 17.72 44.1492 13.0643 43.6126ZM1.54321 38.3577C3.04134 34.8815 4.53309 31.403 6.03721 27.9294C6.18759 27.581 6.17596 27.3444 5.88159 27.0639C5.25234 26.465 4.66771 25.8196 3.97996 25.1041C3.05034 29.6941 2.14359 34.1705 1.23609 38.6465L1.33771 38.6941C1.40709 38.5827 1.49184 38.4774 1.54321 38.3577ZM31.0707 4.55036C33.5971 3.89861 36.1602 3.38898 38.7083 2.82048C38.8733 2.78336 39.0346 2.72898 39.197 2.68248L39.1718 2.55798C35.5827 3.04061 31.994 3.52361 28.2241 4.03098C29.252 4.47986 30.044 4.81511 31.0707 4.55036Z" clip-rule="evenodd"/></svg>